<svg width="40" height="25" viewBox="0 0 40 25" fill="none" xmlns="http://www.w3.org/2000/svg">
<path d="M11.5771 0C12.7238 0 13.7835 0.0870646 14.7562 0.348258C15.7263 0.522386 16.5248 0.885568 17.2338 1.32089C17.9452 1.7587 18.4701 2.38059 18.8283 3.17909C19.1765 3.97511 19.3656 4.94774 19.3656 6.00744C19.3656 7.24126 19.1019 8.30096 18.48 9.09698C17.9452 9.89299 17.0721 10.6044 15.9999 11.1293C17.5074 11.5671 18.6542 12.3631 19.3532 13.4228C20.0522 14.4825 20.4999 15.8034 20.4999 17.3109C20.4999 18.5447 20.2387 19.6044 19.791 20.49C19.3443 21.3813 18.674 22.1416 17.8457 22.6964C17.0497 23.2312 16.077 23.6666 15.0174 23.9302C13.9793 24.2044 12.9118 24.3514 11.8383 24.3681L0 24.3855V0H11.5771ZM10.8681 9.89548C11.8383 9.89548 12.6343 9.63429 13.2487 9.18653C13.8606 8.73877 14.1318 7.95022 14.1318 6.98007C14.1318 6.44276 14.0447 5.92037 13.8706 5.56963C13.6821 5.21415 13.4087 4.91078 13.0746 4.68655C12.7137 4.48978 12.328 4.34252 11.9278 4.24874C11.49 4.16167 11.0422 4.16167 10.5174 4.16167H5.39799V9.90792C5.39799 9.89548 10.8706 9.89548 10.8706 9.89548H10.8681ZM11.1293 20.3258C11.6641 20.3258 12.189 20.2387 12.6368 20.1517C13.0746 20.0646 13.5223 19.888 13.8706 19.6143C14.2188 19.3407 14.4925 19.0795 14.7562 18.6442C14.9303 18.2064 15.1044 17.6716 15.1044 17.0497C15.1044 15.8159 14.7562 14.9303 14.0447 14.3084C13.3358 13.7736 12.3631 13.5124 11.2164 13.5124H5.39799V20.3133H11.1318V20.3258H11.1293ZM28.1889 20.2387C28.9004 20.9477 29.9576 21.2984 31.368 21.2984C32.3382 21.2984 33.2237 21.0347 33.9352 20.587C34.6441 20.0522 35.0795 19.5273 35.2536 18.9949H39.5819C38.8705 21.1119 37.8108 22.6193 36.4028 23.5919C34.9949 24.475 33.3108 24.9999 31.2785 24.9999C29.9789 25.0057 28.69 24.7651 27.48 24.2909C26.391 23.8861 25.4193 23.2178 24.6516 22.3457C23.8329 21.5324 23.2249 20.5317 22.8805 19.4303C22.4452 18.2835 22.2586 17.0497 22.2586 15.6293C22.2586 14.3084 22.4327 13.0621 22.8805 11.9154C23.3283 10.7711 23.9402 9.79598 24.7387 8.9129C25.5347 8.11688 26.5074 7.40544 27.567 6.96763C28.7486 6.49718 30.0092 6.25656 31.281 6.25868C32.7884 6.25868 34.1093 6.51987 35.2561 7.14176C36.4003 7.76365 37.2884 8.46514 37.9974 9.52484C38.7063 10.495 39.2312 11.6417 39.5919 12.8781C39.766 14.1119 39.8531 15.3557 39.766 16.7661H26.9551C26.9551 18.2089 27.4775 19.5273 28.1889 20.2387V20.2387ZM33.7611 10.9552C33.1392 10.3333 32.164 9.98255 31.0173 9.98255C30.2213 9.98255 29.6093 10.1567 29.0745 10.4204C28.5397 10.6815 28.1889 11.0422 27.8407 11.3905C27.5155 11.7319 27.2991 12.1622 27.2188 12.6268C27.1292 13.0621 27.0447 13.4228 27.0447 13.7711H34.9949C34.8208 12.4626 34.373 11.5771 33.7586 10.9552H33.7611ZM25.9825 1.68159H35.878V4.06217H25.9825V1.68159V1.68159Z" fill="black"/>
</svg>
