<svg width="21" height="21" viewBox="0 0 21 21" fill="none" xmlns="http://www.w3.org/2000/svg">
<path d="M10.5002 0.0834961C16.2502 0.0834961 20.9168 4.75016 20.9168 10.5002C20.9168 16.2502 16.2502 20.9168 10.5002 20.9168C4.75016 20.9168 0.0834961 16.2502 0.0834961 10.5002C0.0834961 4.75016 4.75016 0.0834961 10.5002 0.0834961ZM10.5002 5.29183C7.62516 5.29183 5.29183 7.62516 5.29183 10.5002C5.29338 11.6385 5.66767 12.745 6.35748 13.6505C7.04729 14.556 8.01467 15.2107 9.11172 15.5145C10.2088 15.8183 11.3751 15.7545 12.4325 15.3328C13.4898 14.9111 14.38 14.1547 14.9668 13.1793L13.1804 12.1085C12.8992 12.5769 12.5002 12.9633 12.0231 13.2294C11.5461 13.4955 11.0076 13.6318 10.4614 13.6249C9.91514 13.618 9.38028 13.468 8.91011 13.1899C8.43993 12.9118 8.05087 12.5153 7.78171 12.04C7.51255 11.5646 7.3727 11.027 7.37609 10.4808C7.37948 9.93451 7.526 9.39869 7.80104 8.92672C8.07609 8.45476 8.47004 8.06313 8.94363 7.79089C9.41722 7.51865 9.9539 7.37531 10.5002 7.37516C11.6387 7.37516 12.6356 7.9835 13.1814 8.89287L14.9668 7.81996C14.5041 7.04867 13.8494 6.41041 13.0666 5.96736C12.2838 5.52431 11.3996 5.29158 10.5002 5.29183V5.29183Z" fill="black"/>
</svg>
