<svg width="29" height="29" viewBox="0 0 29 29" fill="none" xmlns="http://www.w3.org/2000/svg">
<path d="M27 14.5C27.0021 16.1465 26.6779 17.777 26.0462 19.2974C25.4144 20.8178 24.4877 22.198 23.3194 23.3581C22.1607 24.5148 20.7854 25.4318 19.2721 26.0567C17.7588 26.6816 16.1372 27.0021 14.5 27C7.59626 27 2.00001 21.4038 2.00001 14.5C1.99564 11.2949 3.22681 8.21136 5.43751 5.89064C6.60397 4.65976 8.00934 3.67985 9.56759 3.01087C11.1258 2.3419 12.8042 1.99793 14.5 2.00001C16.1372 1.99789 17.7588 2.31844 19.2721 2.94333C20.7854 3.56822 22.1607 4.48521 23.3194 5.64189C24.4877 6.80203 25.4144 8.18218 26.0462 9.7026C26.6779 11.223 27.0021 12.8536 27 14.5V14.5Z" stroke="black" stroke-width="4" stroke-linecap="round" stroke-linejoin="round"/>
<path d="M27.0002 14.5C25.1764 14.5 20.1452 13.8125 15.6421 15.7893C10.7502 17.9375 7.2083 21.2693 5.66455 23.3418" stroke="black" stroke-width="4" stroke-linecap="round" stroke-linejoin="round"/>
<path d="M9.8125 2.90869C11.7688 4.71432 16.0375 9.31119 17.625 13.8749C19.2125 18.4387 19.8 24.0499 20.1625 25.6468" stroke="black" stroke-width="4" stroke-linecap="round" stroke-linejoin="round"/>
<path d="M2.09619 12.9377C4.45744 13.0802 10.7081 13.2083 14.7081 11.5002C18.7081 9.79207 22.1499 6.6502 23.3306 5.65332M2.93744 19.2583C4.03889 21.9245 6.02538 24.1297 8.56244 25.5027" stroke="black" stroke-width="4" stroke-linecap="round" stroke-linejoin="round"/>
<path d="M2.00001 14.5C1.99564 11.2949 3.22681 8.21136 5.43751 5.89063M14.5 2.00001C12.8042 1.99793 11.1258 2.3419 9.56759 3.01087C8.00934 3.67985 6.60397 4.65976 5.43751 5.89063M19.5 3.04001C20.9235 3.66285 22.2187 4.54516 23.3194 5.64188C24.4877 6.80203 25.4144 8.18218 26.0462 9.7026C26.6779 11.223 27.0021 12.8536 27 14.5C27 16.0388 26.7219 17.5131 26.2125 18.875M14.5 27C16.1372 27.0021 17.7588 26.6816 19.2721 26.0567C20.7854 25.4318 22.1607 24.5148 23.3194 23.3581" stroke="black" stroke-width="4" stroke-linecap="round" stroke-linejoin="round"/>
</svg>
