<svg width="27" height="25" viewBox="0 0 27 25" fill="none" xmlns="http://www.w3.org/2000/svg">
<path d="M13.6106 0C11.9284 0 10.2625 0.331349 8.70833 0.975129C7.1541 1.61891 5.7419 2.56251 4.55235 3.75206C2.14995 6.15447 0.800293 9.41282 0.800293 12.8103C0.800293 18.4725 4.47686 23.2764 9.56256 24.9802C10.2031 25.0826 10.408 24.6855 10.408 24.3396V22.1747C6.85958 22.9433 6.10377 20.4581 6.10377 20.4581C5.5145 18.9721 4.68183 18.575 4.68183 18.575C3.51608 17.7807 4.7715 17.8064 4.7715 17.8064C6.05253 17.896 6.73148 19.1258 6.73148 19.1258C7.84598 21.073 9.7291 20.4965 10.4593 20.1891C10.5746 19.3564 10.9076 18.7928 11.2663 18.4725C8.42244 18.1522 5.43764 17.0506 5.43764 12.1698C5.43764 10.7479 5.92443 9.60775 6.7571 8.69822C6.629 8.37796 6.18063 7.04569 6.8852 5.31629C6.8852 5.31629 7.96127 4.97041 10.408 6.62294C11.4201 6.34112 12.5218 6.2002 13.6106 6.2002C14.6995 6.2002 15.8012 6.34112 16.8132 6.62294C19.26 4.97041 20.3361 5.31629 20.3361 5.31629C21.0406 7.04569 20.5923 8.37796 20.4642 8.69822C21.2968 9.60775 21.7836 10.7479 21.7836 12.1698C21.7836 17.0634 18.786 18.1394 15.9293 18.4597C16.3905 18.8568 16.8132 19.6382 16.8132 20.8296V24.3396C16.8132 24.6855 17.0182 25.0955 17.6715 24.9802C22.7572 23.2636 26.421 18.4725 26.421 12.8103C26.421 11.1281 26.0896 9.46225 25.4458 7.90803C24.8021 6.35381 23.8585 4.94161 22.6689 3.75206C21.4794 2.56251 20.0672 1.61891 18.5129 0.975129C16.9587 0.331349 15.2929 0 13.6106 0V0Z" fill="black"/>
</svg>
